# xmcd
#
# Track frame offsets:
#	150
#	22840
#	35143
#	52175
#	65165
#	76758
#	110630
#	129533
#	145705
#	160040
#	170055
#	185643
#	197620
#
# Disc length: 2844 seconds
#
# Revision: 1
# Processed by: cddbd v1.5.2PL0 Copyright (c) Steve Scherf et al.
# Submitted via: audiograbber 1.83.01
#
DISCID=b80b1a0d
DTITLE=Arthur Kleiner - Ticket to Nashville
DYEAR=2007
DGENRE=Country
TTITLE0=Ticket To Nashville
TTITLE1=Sam´s Message
TTITLE2=Loving Her Was Easier Than
TTITLE3=Cadillac Red
TTITLE4=Highway Patrol
TTITLE5=Guit-steel Blues
TTITLE6=Honky Tonk Blues
TTITLE7=Together Again
TTITLE8=What Now, What Next
TTITLE9=Tonight´s My Night
TTITLE10=My Woman, My Wife
TTITLE11=Mabelene
TTITLE12=Hotel Coupe De Ville
EXTD=
EXTT0=
EXTT1=
EXTT2=
EXTT3=
EXTT4=
EXTT5=
EXTT6=
EXTT7=
EXTT8=
EXTT9=
EXTT10=
EXTT11=
EXTT12=
PLAYORDER=
